mtllib Pipe.mtl
v 0.011061 -0.010982 0.015000 .6 .8 .7
v 0.011061 -0.010982 0.030000 .6 .8 .7
v -0.015939 -0.003982 0.015000 .6 .8 .7
v -0.003939 -0.015982 0.015000 .6 .8 .7
v 0.016061 0.004018 0.015000 .6 .8 .7
v 0.004061 0.016018 0.015000 .6 .8 .7
v -0.010939 0.011018 0.030000 .6 .8 .7
v -0.010939 0.011018 0.015000 .6 .8 .7
v 0.004061 0.016018 0.030000 .6 .8 .7
v -0.016939 0.000018 0.000000 .6 .8 .7
v -0.016939 0.000018 0.017000 .6 .8 .7
v -0.008939 -0.014982 0.017000 .6 .8 .7
v -0.008939 0.015018 0.017000 .6 .8 .7
v 0.009061 0.015018 0.000000 .6 .8 .7
v 0.009061 0.015018 0.017000 .6 .8 .7
v -0.008939 0.015018 0.000000 .6 .8 .7
v 0.017061 0.000018 0.017000 .6 .8 .7
v 0.009061 -0.014982 0.000000 .6 .8 .7
v 0.009061 -0.014982 0.017000 .6 .8 .7
v 0.017061 0.000018 0.000000 .6 .8 .7
v -0.008939 -0.014982 0.000000 .6 .8 .7
v -0.015939 -0.003982 0.030000 .6 .8 .7
v -0.004939 -0.019982 0.030000 .6 .8 .7
v -0.003939 -0.015982 0.030000 .6 .8 .7
v 0.015061 -0.014982 0.030000 .6 .8 .7
v 0.016061 0.004018 0.030000 .6 .8 .7
v 0.020061 0.005018 0.017000 .6 .8 .7
v 0.005061 0.020018 0.017000 .6 .8 .7
v 0.005061 0.020018 0.030000 .6 .8 .7
v -0.014939 0.015018 0.017000 .6 .8 .7
v 0.015061 -0.014982 0.017000 .6 .8 .7
v 0.020061 0.005018 0.030000 .6 .8 .7
v -0.014939 0.015018 0.030000 .6 .8 .7
v -0.019939 -0.004982 0.017000 .6 .8 .7
v -0.019939 -0.004982 0.030000 .6 .8 .7
v -0.004939 -0.019982 0.017000 .6 .8 .7
vt 0.541992 1.000000
vt 0.375000 0.333984
vt 0.375000 1.000000
vt 0.541992 0.333984
vt 0.208008 0.333984
vt 0.208008 1.000000
vt 0.041992 0.333984
vt 0.041992 1.000000
vt 0.708008 1.000000
vt 0.708008 0.333984
vt 1.041992 1.000000
vt 0.875000 0.333984
vt 0.875000 1.000000
vt 1.041992 0.333984
vt 0.227539 0.558594
vt 0.560547 0.025391
vt 0.560547 0.558594
vt 0.227539 0.025391
vt 0.894531 0.025391
vt 0.894531 0.558594
vt 1.227539 0.025391
vt 1.227539 0.558594
vt 1.560547 0.025391
vt 1.560547 0.558594
vt 1.894531 0.025391
vt 1.894531 0.558594
vt 2.227539 0.025391
vt 2.227539 0.558594
vt 0.237305 -0.031250
vt 0.379883 -0.277344
vt 0.418945 -0.230469
vt 0.238281 -0.123047
vt 0.059570 -0.248047
vt 0.100586 -0.291016
vt 0.064453 -0.662109
vt 0.104492 -0.613281
vt 0.247070 -0.861328
vt 0.246094 -0.769531
vt 0.423828 -0.644531
vt 0.383789 -0.599609
vt 1.333008 0.000000
vt 1.000000 1.000000
vt 1.000000 0.000000
vt 1.333008 1.000000
vt 1.666992 0.000000
vt 1.666992 1.000000
vt 0.666992 1.000000
vt 0.666992 0.000000
vt 2.000000 0.000000
vt 2.000000 1.000000
vt 0.333008 1.000000
vt 0.333008 0.000000
vt 0.000000 1.000000
vt 0.000000 0.000000
vn -0.948683 0.316228 0.000000
vn -0.316227 0.948683 0.000000
vn 0.707107 0.707107 0.000000
vn -0.707107 -0.707106 0.000000
vn 0.948684 -0.316227 0.000000
vn 0.316227 -0.948683 0.000000
vn -0.882353 -0.470588 0.000000
vn -0.882353 0.470589 0.000000
vn 0.000000 1.000000 0.000000
vn 0.882353 0.470589 0.000000
vn 0.882353 -0.470588 0.000000
vn 0.000000 -1.000000 0.000000
vn 0.000000 0.000000 1.000000
vn 0.707106 0.707107 0.000000
vn -0.242535 0.970143 0.000000
vn 0.970143 -0.242536 0.000000
vn -0.970142 0.242536 0.000000
vn 0.242535 -0.970143 0.000000

usemtl material_0_244B837_c.png
f 26/1/1 1/2/1 2/3/1
f 5/4/1 1/2/1 26/1/1
f 2/3/2 4/5/2 24/6/2
f 2/3/2 1/2/2 4/5/2
f 24/6/3 3/7/3 22/8/3
f 24/6/3 4/5/3 3/7/3
f 9/9/4 5/4/4 26/1/4
f 9/9/4 6/10/4 5/4/4
f 22/11/5 8/12/5 7/13/5
f 22/11/5 3/14/5 8/12/5
f 7/13/6 6/10/6 9/9/6
f 7/13/6 8/12/6 6/10/6
f 21/15/7 11/16/7 10/17/7
f 21/15/7 12/18/7 11/16/7
f 10/17/8 13/19/8 16/20/8
f 10/17/8 11/16/8 13/19/8
f 16/20/9 15/21/9 14/22/9
f 16/20/9 13/19/9 15/21/9
f 14/22/10 17/23/10 20/24/10
f 14/22/10 15/21/10 17/23/10
f 20/24/11 19/25/11 18/26/11
f 20/24/11 17/23/11 19/25/11
f 18/26/12 12/27/12 21/28/12
f 18/26/12 19/25/12 12/27/12
f 33/29/13 9/30/13 29/31/13
f 33/29/13 7/32/13 9/30/13
f 7/32/13 35/33/13 22/34/13
f 7/32/13 33/29/13 35/33/13
f 23/35/13 22/34/13 35/33/13
f 23/35/13 24/36/13 22/34/13
f 25/37/13 24/36/13 23/35/13
f 25/37/13 2/38/13 24/36/13
f 32/39/13 2/38/13 25/37/13
f 32/39/13 26/40/13 2/38/13
f 29/31/13 26/40/13 32/39/13
f 29/31/13 9/30/13 26/40/13
f 28/41/14 32/42/14 27/43/14
f 28/41/14 29/44/14 32/42/14
f 30/45/15 29/44/15 28/41/15
f 30/45/15 33/46/15 29/44/15
f 27/43/16 25/47/16 31/48/16
f 27/43/16 32/42/16 25/47/16
f 34/49/17 33/46/17 30/45/17
f 34/49/17 35/50/17 33/46/17
f 31/48/18 23/51/18 36/52/18
f 31/48/18 25/47/18 23/51/18
f 36/52/4 35/53/4 34/54/4
f 36/52/4 23/51/4 35/53/4
